Coordinates
version=1
nRows=19
nColumns=36
inDegrees=yes

Units are S.I. units (second, meters, Newtons, ...)
If the header above contains a line with 'inDegrees', this indicates whether rotational values are in degrees (yes) or radians (no).

endheader
time	pelvis_tilt	pelvis_list	pelvis_rotation	pelvis_tx	pelvis_ty	pelvis_tz	hip_flexion_r	hip_adduction_r	hip_rotation_r	knee_angle_r	knee_angle_r_beta	ankle_angle_r	subtalar_angle_r	mtp_angle_r	hip_flexion_l	hip_adduction_l	hip_rotation_l	knee_angle_l	knee_angle_l_beta	ankle_angle_l	subtalar_angle_l	mtp_angle_l	lumbar_extension	lumbar_bending	lumbar_rotation	arm_flex_r	arm_add_r	arm_rot_r	elbow_flex_r	pro_sup_r	arm_flex_l	arm_add_l	arm_rot_l	elbow_flex_l	pro_sup_l
      4.40000000	      2.92283662	      6.15704872	      5.77588375	      0.73190232	      0.76881349	      0.08018564	     31.02316880	      7.17679629	     -0.22641767	     74.24700344	      1.29585467	     32.78092019	    -17.34832255	     -7.49999987	     42.76704373	     -1.82497509	    -21.86151478	      5.50777446	      0.09612880	     -3.34368740	     -6.06590847	     -7.49999987	    -25.68775609	     -5.38689903	     -6.26705799	     42.03358444	     10.23877706	     69.41348729	    121.56830140	     94.46768753	     40.54755502	      8.68752482	     77.70907018	    121.55169803	     80.49593892
      4.41666670	      2.94502748	      6.28995733	      5.44976697	      0.73223957	      0.76626339	      0.07978018	     31.38321182	      7.09037752	     -0.10125486	     75.05089376	      1.30988520	     33.17384903	    -17.30637024	     -7.49999987	     42.27889590	     -1.68607626	    -21.96078187	      4.95557284	      0.08649106	     -2.95087371	     -6.33815954	     -7.49999987	    -25.86575714	     -5.73992760	     -6.14342186	     42.17750209	     10.03732350	     69.34357624	    121.52276939	     93.88760785	     40.27903696	      8.62676883	     77.70895204	    121.87241194	     80.10342661
      4.43333330	      3.24692582	      6.41341682	      5.12946886	      0.73245081	      0.76601015	      0.08084029	     31.14471905	      7.06791838	      0.11759251	     75.31466427	      1.31448887	     33.92951663	    -16.73358159	     -7.49999987	     41.78845348	     -1.70632535	    -21.42161431	      5.10820445	      0.08915499	     -2.62273833	     -6.92565619	     -7.49999987	    -26.27228228	     -5.98367151	     -5.97669176	     42.47996749	      9.93401017	     69.16807876	    121.55240339	     93.29600667	     40.30896512	      8.50949630	     77.62924181	    122.30098440	     79.87034873
      4.45000000	      3.59962994	      6.54363234	      4.79883082	      0.73266262	      0.76663020	      0.08079422	     30.97335442	      6.89765725	      0.21455012	     75.81281036	      1.32318316	     34.23278633	    -16.31880065	     -7.49999987	     41.19112388	     -1.71905600	    -20.46728922	      5.23993143	      0.09145406	     -2.16323016	     -7.33168939	     -7.49999987	    -26.64629580	     -6.16935094	     -5.80977363	     42.71806427	      9.77758063	     69.10088715	    121.41584814	     91.45539873	     40.28100626	      8.46819093	     77.49596486	    122.61457366	     78.86694045
      4.46666670	      3.77378524	      6.68693733	      4.31767317	      0.73334310	      0.76598254	      0.08219670	     30.89650506	      6.82965823	      0.41001796	     76.15713168	      1.32919270	     34.20207822	    -16.41969511	     -7.49999987	     40.75759988	     -1.78265084	    -19.48987226	      5.15609658	      0.08999086	     -2.02485073	     -8.04817054	     -7.49999987	    -26.76175999	     -6.52739581	     -5.47458727	     42.97896590	      9.56322677	     68.79852689	    121.60017419	     94.23144587	     40.21453766	      8.53384418	     77.14854151	    122.92235789	     82.55679828
      4.48333330	      4.13116748	      6.73320347	      3.85635419	      0.73359144	      0.76648384	      0.08235643	     30.70427183	      6.74892607	      0.49248867	     76.52036668	      1.33553234	     34.18191304	    -16.16247400	     -7.49999987	     40.40701444	     -2.15348082	    -18.40082257	      5.83581200	      0.10185413	     -1.49654005	     -8.35228071	     -7.49999987	    -27.06444393	     -6.63451989	     -5.18276972	     43.32721347	      9.37985163	     69.06509627	    121.69488115	     92.25678641	     40.23577082	      8.51900228	     76.98321751	    123.31257829	     81.11904515
      4.50000000	      4.16616299	      6.73398782	      3.50257052	      0.73409977	      0.76600351	      0.08341468	     30.74165876	      6.69480346	      0.60368480	     76.73203652	      1.33922668	     34.11284182	    -16.12219238	     -7.49999987	     40.41603748	     -2.47374683	    -17.52539545	      6.21283714	      0.10843446	     -1.23201175	     -8.82795009	     -7.49999987	    -27.06304226	     -6.69006627	     -4.86525778	     43.25551638	      9.39403180	     68.94102204	    121.83197401	     94.42545856	     40.03814212	      8.66634409	     76.90770624	    123.53448658	     83.47959634
      4.51666670	      3.99195202	      6.87079722	      3.25099334	      0.73378296	      0.76660789	      0.08324276	     30.96218421	      6.53726710	      0.79323132	     76.72309042	      1.33907054	     34.11851904	    -15.98540866	     -7.49999987	     40.78094710	     -2.54477756	    -17.40564264	      6.43529450	      0.11231708	     -1.30958969	     -9.04062698	     -7.49999987	    -26.96309207	     -6.88756425	     -4.71653676	     43.21597660	      9.42807587	     69.00660621	    121.92176302	     93.60825061	     40.04234653	      8.66481507	     76.85612268	    123.79862343	     82.88036277
      4.53333330	      3.77477674	      6.98796940	      3.42121933	      0.73375691	      0.76876119	      0.08411099	     31.04376440	      6.31835198	      0.75052438	     76.35070088	      1.33257112	     34.22719651	    -15.55759308	     -7.49999987	     41.26845693	     -2.54763260	    -17.55560807	      6.86774305	      0.11986473	     -1.70131998	     -9.16255771	     -7.49999987	    -26.79711111	     -6.96728788	     -4.72234512	     43.23499750	      9.35440091	     69.02741283	    122.05853767	     92.15769712	     40.18564769	      8.66703699	     76.72822031	    123.85200802	     81.60272486
      4.55000000	      3.72376804	      7.10373299	      3.55914775	      0.73867902	      0.77298559	      0.08613535	     30.38637737	      6.22242745	      0.76201892	     75.41248946	      1.31619624	     34.21732078	    -15.30375634	     -7.49999987	     41.47003470	     -2.56470101	    -18.28342055	      7.32440627	      0.12783501	     -2.02299405	     -9.40860515	     -7.49999987	    -26.72183753	     -7.12839789	     -4.67461904	     43.13911784	      9.35763239	     69.09213471	    121.97010494	     92.26917814	     40.40346818	      8.59414170	     76.36191183	    123.47718033	     81.66374564
      4.56666670	      3.70735734	      7.10126529	      3.71962299	      0.73826414	      0.77553132	      0.08674702	     29.63923190	      6.09455501	      0.55715015	     74.16408503	      1.29440747	     34.07064409	    -15.13068903	     -7.49999987	     41.69778285	     -2.65532801	    -19.25298182	      7.59002523	      0.13247093	     -2.25609218	     -9.28058001	     -7.49999987	    -26.63302060	     -7.27708878	     -4.55887428	     43.11830166	      9.33100317	     69.08815605	    122.11342309	     91.83794659	     40.75596162	      8.70968773	     75.38835985	    122.63889283	     81.13155015
      4.58333330	      3.22549878	      7.35297643	      4.11497565	      0.73748228	      0.77610192	      0.08580932	     29.71884988	      5.52689807	      0.33381107	     73.50804167	      1.28295735	     33.84836467	    -15.08715251	     -7.49999987	     42.72452002	     -2.44595954	    -20.37484349	      8.18920920	      0.14292866	     -3.03769186	     -9.21976231	     -7.49999987	    -26.18629689	     -7.55223435	     -4.84191470	     43.14190601	      9.60703174	     69.04198129	    122.00390660	     91.23849320	     41.18679780	      8.56348929	     74.68408297	    122.02382312	     80.59636657
      4.60000000	      2.55190302	      7.86139327	      4.54097954	      0.73707121	      0.77826954	      0.08023203	     30.14467924	      4.45034167	      0.35474909	     72.93784983	      1.27300563	     33.84215386	    -14.86513826	     -7.49999987	     43.68245598	     -1.66937225	    -21.76647279	      7.72971139	      0.13490891	     -3.62379578	     -8.94545131	     -7.49999987	    -25.60612141	     -7.92059189	     -5.23281454	     43.29081361	      9.70416916	     69.05316065	    122.28904406	     91.70380245	     40.95578558	      8.35891171	     74.59099830	    121.92616866	     80.87087678
      4.61666670	      1.83973525	      8.22505039	      4.97863530	      0.73678193	      0.78144697	      0.07892254	     30.64678501	      3.57416197	      0.42274899	     72.38948012	      1.26343477	     33.81822481	    -14.56164531	     -7.49999987	     44.58301494	     -0.95555503	    -23.04469873	      7.20285059	      0.12571346	     -4.21597571	     -8.90014579	     -7.49999987	    -24.80805669	     -8.00785331	     -5.47076219	     43.49719094	      9.99860460	     69.14717539	    122.34788147	     92.10504659	     40.74050831	      8.30687119	     74.95590651	    121.89278599	     81.13294358
      4.63333330	      1.36221482	      8.42550805	      5.32915203	      0.73757506	      0.78682622	      0.07864164	     30.50712036	      2.89270273	      0.27064147	     71.32370774	      1.24483353	     33.70194873	    -14.15059385	     -7.49999987	     44.77116939	     -0.57602094	    -22.86610453	      6.73476338	      0.11754380	     -4.99650219	     -8.37895723	     -7.49999987	    -24.17301277	     -7.89091491	     -5.42819377	     43.51085183	     10.13237336	     69.24761246	    122.21106268	     92.28144550	     40.88859138	      8.56322624	     74.92895210	    121.72393970	     81.21992017
      4.65000000	      1.02594333	      8.71820974	      5.43814393	      0.73725295	      0.79300378	      0.07810354	     30.16150381	      2.18036167	      0.26565687	     69.90644100	      1.22009756	     33.56223262	    -13.44757882	     -7.49999987	     44.74096453	     -0.09370494	    -22.23264770	      6.02138499	      0.10509299	     -4.61055250	     -7.92081308	     -7.49999987	    -23.56554778	     -7.92764320	     -5.33100741	     43.43592568	     10.17794455	     69.51638319	    121.99462089	     92.48178077	     40.93356392	      8.88365523	     75.01354959	    121.49778073	     81.30021729
      4.66666670	      1.25259861	      9.10009780	      5.34287816	      0.73738055	      0.80458266	      0.07879117	     28.79919581	      1.45469030	      0.24032809	     67.75590332	      1.18256360	     33.36080367	    -12.27277217	     -7.49999987	     43.84832111	      0.18995662	    -22.02422613	      5.24476247	      0.09153837	     -4.51150272	     -7.14340301	     -7.49999987	    -23.89384610	     -8.14768609	     -5.04585782	     43.55535797	     10.00748615	     70.08349356	    121.82982726	     91.19695338	     41.18088138	      9.28026153	     75.59364348	    121.20503312	     80.02594507
      4.68333330	      1.14143989	      9.33705979	      5.33874955	      0.73689603	      0.80770659	      0.07895016	     28.00373210	      0.85134711	      0.06415632	     65.94323853	      1.15092663	     33.26102179	    -11.34573481	     -7.49999987	     43.38985784	      0.12412746	    -21.06449845	      4.57346795	      0.07982207	     -4.57990163	     -6.05953465	     -7.49999987	    -23.67697658	     -8.31211362	     -4.89307733	     43.25826510	      9.84956826	     70.19826179	    121.68587779	     90.89642986	     40.80292597	      9.54343128	     76.03132169	    121.02529702	     79.60075228
      4.70000000	      0.90057038	      9.82005674	      5.04571277	      0.73207717	      0.81415668	      0.07719099	     27.86996527	      0.08326056	      0.35389353	     64.60239945	      1.12752458	     32.96388125	    -10.94716333	     -7.49999987	     43.81689062	      0.00404298	    -20.34045967	      5.24004228	      0.09145599	     -4.73774026	     -5.75157852	     -7.49999987	    -23.68739077	     -8.76340657	     -4.87956240	     43.32175632	      9.90716323	     70.22471675	    121.56302092	     90.88553762	     40.97220005	      9.50893729	     76.01378984	    120.89710349	     79.58037300
